<svg data-name="圖層 2" xmlns="http://www.w3.org/2000/svg" viewBox="0 0 66 66.69"><path d="M40.57 66.69H7.22a11.75 11.75 0 0 1-1.58-.54 5.21 5.21 0 0 1-3-5.08V5.62a5.6 5.6 0 0 1 1.4-3.95A5.88 5.88 0 0 1 7.22 0h33.35c.1 0 .2.08.3.1a4.94 4.94 0 0 1 4.07 3.83 15.85 15.85 0 0 1 .19 3.17v2.25a16.9 16.9 0 0 1 18.2 16.14 16.38 16.38 0 0 1-3.58 11 16.72 16.72 0 0 1-14.61 6.41v18.32A5.51 5.51 0 0 1 43.73 65a5.83 5.83 0 0 1-3.16 1.69zm-2-55.5H8.25A2.07 2.07 0 0 0 6 13.49v41.36h35.74V42.28c-.26.06-.47.1-.68.16-3.46.87-6.92 1.77-10.39 2.62a2 2 0 0 1-2.55-2.59c.81-3.23 1.62-6.47 2.47-9.69a3.1 3.1 0 0 0-.05-1.78 16.44 16.44 0 0 1 2.59-14.93 18.81 18.81 0 0 1 5.48-4.88zm-5.88 29.29l.75-.17c2.56-.64 5.07-1.31 7.62-1.91a3.82 3.82 0 0 1 1.78 0 14.58 14.58 0 0 0 5.54.4A12.92 12.92 0 0 0 59.41 26a12.85 12.85 0 1 0-24.87 4.68 4.29 4.29 0 0 1 .13 1.89 18.29 18.29 0 0 1-.55 2.27c-.47 1.83-.94 3.68-1.43 5.64zM23.3 5h-3.44a1.75 1.75 0 0 0-1.94 1.66 1.76 1.76 0 0 0 1.91 1.7h7c1.19 0 2-.69 2-1.7A1.72 1.72 0 0 0 26.82 5zm-1 53.31a14.29 14.29 0 0 0 0 2 1.63 1.63 0 0 0 1.61 1.35 1.72 1.72 0 0 0 1.62-1.42 17.13 17.13 0 0 0 0-1.9z"/><path d="M45.13 18.7v-1.39a.59.59 0 0 1 .68-.67h1.56c.56 0 .76.27.68.72-.17 1 .22 1.47 1.24 1.78 1.57.47 1.57.69.67 2.05a5 5 0 0 0-.31.49c-.26.49-.6.55-1.08.3a3.94 3.94 0 0 0-3.15-.29 1.53 1.53 0 0 0-.89.8.91.91 0 0 0 .68 1.1c.93.35 1.87.67 2.81 1a4.39 4.39 0 0 1 2.91 2.49 3.65 3.65 0 0 1-2.15 4.79A.91.91 0 0 0 48 33c0 1.38 0 1.38-1.39 1.38h-.13c-1.39 0-1.41 0-1.38-1.4 0-.5-.13-.7-.64-.81a5.89 5.89 0 0 1-2.76-1.52.58.58 0 0 1 0-1c.35-.32.71-.64 1-1a.7.7 0 0 1 1.12 0 3.62 3.62 0 0 0 3.48.7 1.39 1.39 0 0 0 .85-.74c.17-.48-.24-.79-.68-.95l-2.81-1c-1.56-.59-2.81-1.51-3.08-3.29a3.77 3.77 0 0 1 2.79-4.39z"/></svg>