<svg id="圖層_1" data-name="圖層 1" xmlns="http://www.w3.org/2000/svg" viewBox="0 0 48.85 47.74"><defs><style>.cls-1{fill:#cf9f4a}</style></defs><path class="cls-1" d="M0 47.74h38.85a10 10 0 0 0 10-10V0zm45.67-21.65a1.27 1.27 0 0 1-.27.18 34 34 0 0 0-6 4.46 57.46 57.46 0 0 0-9 10.1c-.42.61-.89 1.18-1.33 1.77a1.17 1.17 0 0 1-1.17.5c-.75-.12-1.49-.29-2.23-.46a1.06 1.06 0 0 1-.77-.71c-.36-.92-.7-1.85-1.12-2.75s-.87-1.7-1.31-2.54c-.14-.29-.28-.57-.39-.87a.89.89 0 0 1 .2-1 3 3 0 0 1 2.6-.91 2.22 2.22 0 0 1 .95.49 5.49 5.49 0 0 1 1.61 2.2c.23.52.43 1 .65 1.6l.29-.38a63.52 63.52 0 0 1 10-10.54c.79-.66 1.65-1.22 2.49-1.81a2.92 2.92 0 0 1 2.07-.54c.83.1 1.68.17 2.52.27a.46.46 0 0 1 .46.36.56.56 0 0 1-.25.58z"/></svg>