<svg data-name="圖層 1" xmlns="http://www.w3.org/2000/svg" viewBox="0 0 66 66.69"><path d="M33.51 40.93a34.83 34.83 0 0 0-15.37-4.32 11.58 11.58 0 0 0-8.34 2.56 5.78 5.78 0 0 0-.45 8.6A11 11 0 0 0 16.5 51c7.41.5 13.11-2.62 17.39-8.57.56-.76.41-1.07-.38-1.5z"/><path d="M54.64.35H11.36A11.38 11.38 0 0 0 0 11.7V55a11.38 11.38 0 0 0 11.36 11.34h43.28A11.39 11.39 0 0 0 66 56c-.25-.1-.12 0-.58-.25q-12.32-5.43-24.58-10.9c-.61-.28-.83 0-1.15.39a31.48 31.48 0 0 1-14 9.3 19.53 19.53 0 0 1-13.13-.1c-4.12-1.59-7-4.42-7.6-8.93a11.09 11.09 0 0 1 9.64-12.92c4.83-.79 9.58-.15 14.3.84a60.47 60.47 0 0 1 8.24 2.35c.61.23 1 .17 1.28-.43A41.69 41.69 0 0 0 41.18 28c.26-.82-.44-.51-.72-.51-4.21-.06-8.42-.08-12.63-.11-3.55 0-7.11-.05-10.66 0-.72 0-1-.17-1-.93.06-1.57 0-1.57 1.54-1.56 3.3 0 6.6 0 9.9.05.69 0 .95-.15.92-.88a23.26 23.26 0 0 1 0-3c.06-.76-.2-1-.94-1-4.33 0-8.67-.06-13 0-.9 0-1.2-.19-1.15-1.13.09-1.55 0-1.55 1.55-1.55 4.21 0 8.42 0 12.63.07.75 0 1-.21.94-.95-.05-1.63 0-3.26 0-4.9a1.38 1.38 0 0 1 1.23-1.6 4 4 0 0 1 1-.17h4.81c.58 0 .76.19.75.76 0 2 0 4-.06 5.94 0 .76.24.94 1 .94 4.8 0 9.61.05 14.42 0 .79 0 1 .22 1 1-.06 1.68 0 1.68-1.7 1.68-4.55 0-9.11 0-13.67-.08-.85 0-1.09.24-1 1.05a23.71 23.71 0 0 1 0 2.92c0 .67.19.86.84.86 3.84 0 7.67.07 11.5 0 .9 0 1 .22.81 1.05a61.67 61.67 0 0 1-4.6 11.52c-.25.49-.38.76.33 1q10.13 3.39 20.25 6.84c.17.06.62.15.62.15V11.7A11.38 11.38 0 0 0 54.64.35z"/></svg>