<svg id="圖層_1" data-name="圖層 1" xmlns="http://www.w3.org/2000/svg" viewBox="0 0 37.62 37.62"><defs><style>.cls-1{fill:#fff}</style></defs><path class="cls-1" d="M18.51 0h.59c.26.11.52.21.77.33 5.45 2.45 10.9 4.91 16.36 7.34a2.19 2.19 0 0 1 1.39 1.44v.66a1.88 1.88 0 0 1-1.91 1.35H1.9a2.88 2.88 0 0 1-.65-.12A1.84 1.84 0 0 1 0 9.77v-.66a2 2 0 0 1 1.12-1.32zM0 35.56a5.41 5.41 0 0 1 .52-.87A1.8 1.8 0 0 1 2 34.18h33.6a1.81 1.81 0 0 1 1.64.7 5.25 5.25 0 0 1 .38.83v.36a1.91 1.91 0 0 1-1.47 1.55H1.4a2 2 0 0 1-1.4-1.4zm4.24-21.17l-.54-.06a.81.81 0 0 1-.7-.79.79.79 0 0 1 .62-.83 2.16 2.16 0 0 1 .51-.06h29.46c.61 0 1 .34 1 .84s-.35.83-1 .87h-.27v15.39h.43a1.7 1.7 0 0 1 .07 3.4H4.18a2.78 2.78 0 0 1-1-.16 1.64 1.64 0 0 1-1-1.82 1.69 1.69 0 0 1 1.6-1.42h.47zm12 0v15.33h5.07V14.38zm13.63 0h-5.06v15.33h5.09zm-22.17 0v15.33h5.06V14.38z"/></svg>