<svg data-name="圖層 1" xmlns="http://www.w3.org/2000/svg" viewBox="0 0 66 66.69"><path d="M8.53 61.33v-31s.09-.1.1-.16A6.25 6.25 0 0 1 15.15 25h1.71v-8.65A16.6 16.6 0 0 1 28.19.91C29.46.49 30.79.3 32.1 0H35l1 .17a16.69 16.69 0 0 1 14.2 16.76V25h2.24a6.29 6.29 0 0 1 5.8 4.35c.1.32.19.65.29 1v31a3.31 3.31 0 0 0-.14.41 6.25 6.25 0 0 1-4.22 4.63c-.32.12-.65.2-1 .3h-39.3c-.22-.08-.44-.16-.66-.22a6.17 6.17 0 0 1-4.36-4.1c-.13-.37-.22-.7-.32-1.04zM44.63 25v-6.42a28.73 28.73 0 0 0-.17-3.82 11.1 11.1 0 0 0-22 2.08V25zM30.76 50v3.06a2.74 2.74 0 0 0 2.77 2.5A2.71 2.71 0 0 0 36.27 53v-5.92a1 1 0 0 1 .46-.9 5.43 5.43 0 0 0 2.17-5.78 5.54 5.54 0 0 0-10.62-.56 5.44 5.44 0 0 0 2 6.34 1 1 0 0 1 .45.91v2.83z"/></svg>