<svg data-name="圖層 1" xmlns="http://www.w3.org/2000/svg" viewBox="0 0 66 66.69"><path d="M0 63.06v-41.7a2.41 2.41 0 0 1 2.55-1.63h48.06c4 0 6.76 2.62 6.77 6.4v5.84H47.05a16.48 16.48 0 0 0-2 .12c-6.06.74-10.34 6.71-8.87 12.36a10.65 10.65 0 0 0 10.6 7.95h10.59v6.35a5.82 5.82 0 0 1-2.22 4.38 8.37 8.37 0 0 1-3.32 1.51H1.68A2.66 2.66 0 0 1 0 63.06z"/><path d="M66 48.26c-.21 0-.43.05-.64.05H47a6.82 6.82 0 0 1-5.5-2.44A6 6 0 0 1 43.25 37a7.65 7.65 0 0 1 3.75-.95h19zm-19.35-4a2 2 0 1 0-2.17-2 2.12 2.12 0 0 0 2.17 1.97zM21.27 2a11.94 11.94 0 0 1 1.53 1.11C27 7.07 31.19 11.05 35.39 15a5.79 5.79 0 0 0 .55.43l-.08.13H5.73a2.43 2.43 0 0 1 .24-.3Q12.54 9 19.14 2.79A7.21 7.21 0 0 1 20.37 2zm12.89 0a11.33 11.33 0 0 1 1.54 1.1q6.33 6 12.63 12l.58.59h-6.32a1.26 1.26 0 0 1-.79-.27L30.49 4.61l-.17-.21C31.3 3.61 32 2.52 33.26 2zM66 32h-4.3v-6.59a9.36 9.36 0 0 0-1.86-5.3c-.06-.08-.11-.17-.22-.34a6.26 6.26 0 0 1 3.76 1.16 6.06 6.06 0 0 1 2.54 3.83c0 .09.08.18.12.27zm-6.45 32.65a10.87 10.87 0 0 0 2.16-7.31c-.06-1.4 0-2.81 0-4.21v-.71H66v7c0 .11-.1.22-.13.33a5.58 5.58 0 0 1-2.43 3.61 22.83 22.83 0 0 1-3 1.32z"/></svg>