<svg id="圖層_1" xmlns="http://www.w3.org/2000/svg" viewBox="0 0 48.9 47.7"><style>.st0{fill:#cf9f4a}.st1{fill:#fff}</style><path d="M-559.4 111.3v-3.9c0-.2.1-.5.1-.7.2-1.2.2-2.4.5-3.5 1.3-7.1 4.9-13.7 10.3-18.6 4.6-4.3 10.3-7.1 16.5-8.1 1.2-.2 2.5-.3 3.7-.5h3.9c.2 0 .4.1.6.1 1.2.2 2.5.3 3.7.5 7.1 1.3 13.5 5 18.2 10.4 4.2 4.7 7 10.5 8 16.7.2 1.2.3 2.5.5 3.7v3.9c0 .2-.1.5-.1.7-.2 1.2-.3 2.5-.5 3.7-1.3 7.1-4.9 13.6-10.2 18.4-4.6 4.3-10.3 7.1-16.5 8.1-1.2.2-2.5.3-3.7.5h-3.9c-.2 0-.4-.1-.6-.1-1.2-.2-2.4-.3-3.6-.5-7.1-1.3-13.5-5-18.2-10.4-4.2-4.7-7-10.4-8-16.6-.4-1.3-.6-2.5-.7-3.8zm60.5-2c-.2-15.2-12.6-27.3-27.8-27.2-15.2.2-27.3 12.6-27.2 27.8.2 15.1 12.4 27.2 27.5 27.2 15.2-.1 27.5-12.5 27.5-27.8 0 .1 0 .1 0 0z"/><path d="M-529.2 109.4V95.7c-.2-1.5.9-2.9 2.4-3 1.5-.2 2.9.9 3 2.4v27.8c.2 1.3-.6 2.6-1.8 3-1.4.5-2.9-.2-3.4-1.6-.1-.3-.1-.5-.2-.8-.1-1.9 0-3.8 0-5.7v-8.4z"/><path d="M-529.2 109.3c0-1.5 1.2-2.7 2.7-2.7 1.5 0 2.7 1.2 2.7 2.7 0 1.5-1.2 2.7-2.7 2.7-1.5.1-2.7-1.2-2.7-2.7z"/><path d="M-551.4 137.3v-31s.1-.1.1-.2c.5-3.1 3.3-5.4 6.5-5.2h1.7v-8.7c.1-7 4.7-13.2 11.3-15.4 1.3-.4 2.6-.6 3.9-.9h2.9l1 .2c8.3 1.2 14.3 8.4 14.2 16.8v8.1h2.2c2.7.1 5 1.8 5.8 4.3.1.3.2.7.3 1v31c-.1.1-.1.3-.1.4-.5 2.2-2.1 4-4.2 4.6-.3.1-.7.2-1 .3h-39.3c-.2-.1-.4-.2-.7-.2-2.1-.5-3.7-2.1-4.4-4.1-.1-.3-.1-.6-.2-1zm36.1-36.3v-6.4c0-1.3 0-2.6-.2-3.8-1.2-6-7-10-13-8.8-5.2 1-9 5.6-9 10.9v8.2h22.2zm-13.9 25v3.1c.1 1.4 1.3 2.5 2.8 2.5 1.5 0 2.7-1.1 2.7-2.6v-5.9c0-.4.2-.7.5-.9 1.9-1.3 2.7-3.6 2.2-5.8-.7-3-3.7-4.8-6.7-4.1-1.8.4-3.3 1.8-4 3.6-.9 2.3 0 4.9 2 6.3.3.2.5.5.5.9v2.9z"/><path d="M-559.4 91.2c.3-1.3.8-2.6 1.6-3.7 1.6-2 4.1-3.1 6.6-2.9V88c0 2.7 1.5 5.2 3.8 6.6 1 .6 2.2 1 3.4 1 5.3 0 10.6.1 15.8 0 4-.2 7.2-3.5 7.2-7.5v-3.4c2.3-.2 4.5.6 6.1 2.3 1.2 1.2 2 2.7 2.1 4.4.1 2.8 0 5.5 0 8.4-.7.1-1.5.1-2.2.2-2.6.3-5.1 1-7.5 2.2-.5.3-1.1.4-1.7.4h-24.6c-.6 0-1.2.1-1.7.5-.9.7-1 1.9-.3 2.8.3.4.8.7 1.2.7.3.1.7.1 1 .1h19.6l-.4.4c-1 1.3-2 2.5-3 3.8-.2.3-.6.6-1 .5h-15.5c-.3 0-.6 0-.8.1-1.1.2-1.8 1.3-1.6 2.4.2.9 1 1.6 2 1.6h14.5c-.3 1.1-.5 2.1-.8 3.1-.1.3-.2.7-.2 1 0 .6-.3.7-.9.7h-12.2c-.6 0-1.1.2-1.6.4-.7.5-1 1.3-.8 2.1.2.9 1.1 1.5 2 1.5h12.6c.2 0 .5.2.5.3.1 3.2.9 6.4 2.3 9.3h-.8c-5.6 0-11.3-.1-16.9 0-3.9.2-7.4-2.6-8-6.4v-.2l.2-36.1z"/><path d="M-513.6 142.3c-1.3-.3-2.6-.4-3.8-.8-9.8-3-15.3-13.3-12.4-23.1s13.3-15.3 23.1-12.4c6.8 2.1 11.8 7.8 12.9 14.8l.2 1.5v2.8c0 .2-.1.4-.1.6-.8 7.7-6.3 14.1-13.8 16-1.1.3-2.2.4-3.3.6h-2.8zm-1.3-17.1l-.2-.1c-1.1-1.1-2.1-2.1-3.2-3.1-1-1.1-2.7-1.3-3.9-.3s-1.3 2.7-.3 3.9l.3.3 5.3 5.3c1 1.1 2.7 1.2 3.8.3.1-.1.2-.2.3-.4 3.2-3.6 6.3-7.2 9.5-10.8 1-1.1.9-2.9-.3-3.9-1.1-1-2.7-.9-3.7.1l-.2.2c-1 1.2-2 2.3-3.1 3.5l-4.3 5zm-20.2-48.9c.5.1 1 .2 1.5.4 2.2.7 3.9 2.4 4.6 4.6.2.4.3.5.7.5h2.4c1.1 0 2 .8 2.1 1.9v4.4c0 2.6-2.2 4.6-4.7 4.6h-15.2c-2.6 0-4.8-2.1-4.8-4.8V84c0-1.1.9-2.1 2-2.1h2.7c.2 0 .4-.2.5-.3.9-2.7 3.3-4.6 6.1-5 .1 0 .1-.1.2-.2l1.9-.1z"/><path d="M-559.4 111.7V107c.2-.1.4-.2.7-.2h64c.5-.1.9 0 1.3.2v4.8c-.2.1-.4.2-.7.2h-64c-.5 0-.9 0-1.3-.3z"/><path d="M-495.6 105.2c-1.1-1.1-2.6-1.8-4.2-1.8h-53.5c-.9.1-1.7.3-2.5.7-2 1.1-3.4 3.1-3.7 5.4v5.8h.2c.3.1.7.1 1 .1h63.4c.3 0 .7 0 1-.1h.4v-5.6c0-1.8-.8-3.4-2.1-4.5z"/><path d="M-494.8 98.6h-64c-.2 0-.5.1-.7.2V114c.1 1.1.5 2.1 1.1 3 1.1 1.7 3 2.8 5 3h53.6c.9 0 1.8-.3 2.6-.7 2-1 3.4-3 3.7-5.3V98.9c-.4-.4-.8-.3-1.3-.3zm-8.2 8c-.3 1-1.2 1.7-2.2 1.7h-9.7c-1.1 0-2.1-.9-2.2-2.1-.1-1.1.6-2.2 1.7-2.5.2-.1.5-.1.8-.1h9.3c1.3-.1 2.4.9 2.4 2.2 0 .3 0 .6-.1.8z"/><path d="M-546.9 116.9c-4.8-2.7-9.9-4-15.4-4.3-3.1-.1-5.9.5-8.3 2.6-2.7 2.3-2.9 6.2-.5 8.6 2 2 4.4 3.1 7.1 3.3 7.4.5 13.1-2.6 17.4-8.6.6-.8.4-1.1-.3-1.6z"/><path d="M-525.8 76.4h-43.3c-6.2 0-11.4 5.1-11.4 11.4V131c0 6.2 5.1 11.4 11.4 11.4h43.3c5.9 0 10.8-4.6 11.3-10.3-.2-.1-.1 0-.6-.2-8.2-3.6-16.4-7.2-24.5-10.9-.6-.3-.8 0-1.2.4-3.9 4.3-8.5 7.6-14 9.3-4.4 1.3-8.8 1.6-13.1-.1-4.1-1.6-7-4.4-7.6-8.9-.8-5.7 2.3-11.7 9.6-12.9 4.8-.8 9.6-.2 14.3.8 2.8.6 5.5 1.4 8.2 2.3.6.2 1 .2 1.3-.4 1.2-2.3 2-4.9 2.8-7.4.3-.8-.4-.5-.7-.5-4.2-.1-8.4-.1-12.6-.1h-10.7c-.7 0-1-.2-1-.9.1-1.6 0-1.6 1.5-1.6h9.9c.7 0 1-.2.9-.9-.1-1 0-2 0-3 .1-.8-.2-1-.9-1-4.3 0-8.7-.1-13 0-.9 0-1.2-.2-1.1-1.1.1-1.6 0-1.6 1.5-1.6 4.2 0 8.4 0 12.6.1.8 0 1-.2.9-.9v-4.9c0-.9.4-1.3 1.2-1.6.3-.1.7-.2 1-.2h4.8c.6 0 .8.2.8.8 0 2 0 4-.1 5.9 0 .8.2.9 1 .9h14.4c.8 0 1 .2 1 1-.1 1.7 0 1.7-1.7 1.7-4.6 0-9.1 0-13.7-.1-.9 0-1.1.2-1 1.1.1 1 0 1.9 0 2.9 0 .7.2.9.8.9 3.8 0 7.7.1 11.5.1.9 0 1 .2.8 1.1-1.1 4-2.8 7.8-4.6 11.5-.2.5-.4.8.3 1 6.8 2.3 13.5 4.6 20.3 6.8.2.1.6.2.6.2v-34c.1-6.2-5-11.3-11.2-11.3z"/><path class="st0" d="M0 47.7h38.9c5.5 0 10-4.5 10-10V0L0 47.7zm45.7-21.6c-.1.1-.2.1-.3.2-2.2 1.2-4.1 2.8-6 4.5-3.4 3-6.4 6.4-9 10.1-.4.6-.9 1.2-1.3 1.8-.3.4-.7.6-1.2.5-.8-.1-1.5-.3-2.2-.5-.4-.1-.6-.3-.8-.7-.4-.9-.7-1.9-1.1-2.8-.4-.9-.9-1.7-1.3-2.5-.1-.3-.3-.6-.4-.9-.1-.4-.1-.7.2-1 .7-.7 1.6-1.1 2.6-.9.3.1.7.3 1 .5.7.6 1.2 1.3 1.6 2.2.2.5.4 1 .6 1.6.1-.1.2-.3.3-.4 3-3.9 6.2-7.4 10-10.5.8-.7 1.7-1.2 2.5-1.8.6-.4 1.3-.6 2.1-.5.8.1 1.7.2 2.5.3.2 0 .4.1.5.4 0 .1-.1.2-.3.4z"/><path class="st1" d="M214.5 68.1v15h-73v-46h73V51H206c-7 0-7 0-7.1 6.8 0 1.7-.2 3.5-.4 5.6-4.8-1.3-2.8-4.7-3.3-7.1-.4-2.2.5-5-3.1-5.2-3.2-.1-2.9 2.3-3.3 4.5-.8 4.6-3.5 7.5-8.4 7.7-4.8.2-8-1.8-9.4-6.5-.4-1.5-.9-2.9-1.4-4.3-.8 3-.8 5.8-1.1 8.6-.1.7-1.1 1.4-1.7 2.1-.6-.7-1.3-1.3-1.7-2-.3-.7-.2-1.6-.1-2.5.2-3.3-2.1-3.7-4.3-3.1-1.5.4-2.9 1.8-3.9 3.1-.9 1.3-1.2 3-1.8 4.5-.7-1.7-1.4-3.3-2-5-.2-.4-.1-1-.1-1.5.4-3.9-1-5.8-5.3-5.8-4.6 0-5.2 2.4-5 6.1.1 2 .2 4-.1 6-.9 7.1 3.9 11 8.1 16.8.2-4.2.4-7 .6-10.1h5.9c16.8 0 33.7.1 50.5-.1 2.5.1 4.7-.9 6.9-1.5zM179.7 49c-2.6 2.6-5.2 4-5.3 5.6-.3 3.3 2.1 5.9 5.5 5.8 3.1-.1 5.6-2.3 5-5.6-.4-1.7-2.8-3.1-5.2-5.8z"/><path d="M214.5 68.1c-2.2.6-4.4 1.6-6.6 1.6-16.8.1-33.7.1-50.5.1h-5.9c-.2 3.1-.3 5.8-.6 10.1-4.2-5.8-9.1-9.7-8.1-16.8.3-2 .2-4 .1-6-.2-3.6.4-6.1 5-6.1 4.3 0 5.7 1.8 5.3 5.8 0 .5-.1 1 .1 1.5.6 1.7 1.3 3.3 2 5 .6-1.5.8-3.3 1.8-4.5 1-1.3 2.4-2.7 3.9-3.1 2.2-.6 4.5-.1 4.3 3.1 0 .8-.2 1.8.1 2.5.3.8 1.1 1.4 1.7 2 .6-.7 1.6-1.3 1.7-2.1.3-2.8.3-5.6 1.1-8.6.5 1.4.9 2.9 1.4 4.3 1.4 4.7 4.6 6.7 9.4 6.5 4.9-.2 7.6-3.1 8.4-7.7.4-2.2.1-4.6 3.3-4.5 3.6.2 2.7 3 3.1 5.2.5 2.3-1.6 5.8 3.3 7.1.2-2.1.4-3.8.4-5.6.2-6.8.2-6.8 7.1-6.8h8.5c-.3 5.7-.3 11.3-.3 17z"/><path d="M179.7 49c2.4 2.7 4.8 4.1 5.2 5.9.6 3.3-1.9 5.5-5 5.6-3.4.1-5.8-2.6-5.5-5.8.1-1.6 2.7-3 5.3-5.7z"/></svg>