<svg data-name="圖層 1" xmlns="http://www.w3.org/2000/svg" viewBox="0 0 66 66.69"><path d="M0 15.16a9 9 0 0 1 1.61-3.67A7.7 7.7 0 0 1 8.25 8.6V12a7.44 7.44 0 0 0 3.84 6.57 6.38 6.38 0 0 0 3.36 1c5.29 0 10.57.07 15.85 0a7.49 7.49 0 0 0 7.21-7.54V8.65a7.57 7.57 0 0 1 6.09 2.27 6.62 6.62 0 0 1 2.07 4.42c.09 2.77 0 5.54 0 8.37-.72.06-1.46.12-2.2.2A24.53 24.53 0 0 0 37 26.07a4.07 4.07 0 0 1-1.71.39H10.7A2.39 2.39 0 0 0 9 27a2 2 0 0 0-.34 2.81 2 2 0 0 0 1.25.74 3.72 3.72 0 0 0 1 .08h19.63l-.37.45c-1 1.28-2 2.54-3 3.84a1.07 1.07 0 0 1-1 .52H10.71a4 4 0 0 0-.84.06 2.05 2.05 0 0 0 .35 4.06h14.54c-.28 1.07-.55 2.1-.81 3.13a3.86 3.86 0 0 0-.2 1c0 .64-.32.73-.89.73H10.68a3.33 3.33 0 0 0-1.57.43A1.88 1.88 0 0 0 8.34 47a2 2 0 0 0 2 1.47h12.57c.16 0 .45.22.46.34a24.41 24.41 0 0 0 2.27 9.28h-.75c-5.63 0-11.26-.07-16.88 0a7.7 7.7 0 0 1-8-6.43.76.76 0 0 0 0-.15z"/><path d="M45.89 66.34c-1.28-.26-2.57-.45-3.82-.81a18.55 18.55 0 1 1 23.69-20.68l.24 1.49v2.84c0 .19-.08.37-.11.55a18.53 18.53 0 0 1-13.76 16c-1.07.28-2.18.42-3.27.62zm-1.3-17.13l-.15-.09c-1.07-1.06-2.12-2.12-3.2-3.12a2.75 2.75 0 0 0-4.15 3.62l.27.26c1.75 1.77 3.51 3.54 5.28 5.29a2.72 2.72 0 0 0 3.85.24 2.31 2.31 0 0 0 .34-.36q4.74-5.37 9.46-10.81a2.75 2.75 0 0 0-4-3.77l-.16.18c-1 1.15-2 2.32-3.05 3.49zM24.36.34c.49.14 1 .24 1.47.41a7.49 7.49 0 0 1 4.65 4.59c.15.39.32.54.73.52h2.45a2 2 0 0 1 2.07 1.93v4.4A4.73 4.73 0 0 1 31 16.83H15.8a4.8 4.8 0 0 1-4.8-4.75V8a2.06 2.06 0 0 1 2-2.11h2.65a.71.71 0 0 0 .55-.35 7.56 7.56 0 0 1 6.07-5 .52.52 0 0 0 .17-.16z"/></svg>