<svg data-name="圖層 1" xmlns="http://www.w3.org/2000/svg" viewBox="0 0 66 66.69"><path d="M0 31.06v-4.77a1 1 0 0 1 .66-.21h64a2 2 0 0 1 1.34.21v4.77a1 1 0 0 1-.66.2h-64a1.9 1.9 0 0 1-1.34-.2zm63.85-19.45a6.28 6.28 0 0 0-4.18-1.82H6.18a6.62 6.62 0 0 0-2.5.69A6.88 6.88 0 0 0 0 15.85v5.8h.2a2.26 2.26 0 0 0 1 .07h63.45a3.06 3.06 0 0 0 1-.08H66V16a6.35 6.35 0 0 0-2.15-4.39zm.83 23.88H.65a1 1 0 0 0-.65.21v15.21a6.34 6.34 0 0 0 1.09 3 6.81 6.81 0 0 0 5 3h53.58a6.35 6.35 0 0 0 2.63-.69 6.83 6.83 0 0 0 3.7-5.31V35.7c-.41-.32-.87-.21-1.32-.21zm-8.23 8a2.27 2.27 0 0 1-2.18 1.67h-9.66a2.27 2.27 0 0 1-2.19-2.06 2.34 2.34 0 0 1 1.67-2.51 2.78 2.78 0 0 1 .76-.1h9.27a2.32 2.32 0 0 1 2.33 3z"/></svg>