<svg id="圖層_1" data-name="圖層 1" xmlns="http://www.w3.org/2000/svg" viewBox="0 0 10 10"><defs><style>.cls-1{fill:#fff}</style></defs><path class="cls-1" d="M5.29 10h-.97a4.88 4.88 0 0 1-2.83-1.44 4.86 4.86 0 0 1-1.41-2.7c0-.19 0-.38-.08-.57V4.6c0-.04 0-.36.07-.54a4.9 4.9 0 0 1 1.37-2.57A4.86 4.86 0 0 1 4.14.08c.19 0 .38 0 .57-.08h.78A5 5 0 0 1 8.3 1.24a4.89 4.89 0 0 1 1.62 2.91 5 5 0 0 1 .08.56v.69c0 .04 0 .36-.07.54a4.9 4.9 0 0 1-1.37 2.57 4.86 4.86 0 0 1-2.7 1.41c-.19.08-.38.08-.57.08zm.13-5.84V2.05A.4.4 0 0 0 5 1.67a.41.41 0 0 0-.4.33.38.38 0 0 0 0 .15v4.14a.41.41 0 1 0 .82-.07V4.16zm0 3.76a.41.41 0 1 0-.42.42.42.42 0 0 0 .41-.42z"/></svg>