<svg id="圖層_1" xmlns="http://www.w3.org/2000/svg" viewBox="0 0 81.3 81"><style>.st0{fill:url(#SVGID_1_)}</style><linearGradient id="SVGID_1_" gradientUnits="userSpaceOnUse" x1="84.523" y1="50.735" x2="3.819" y2="31.746"><stop offset="0" stop-color="#ffde82"/><stop offset=".123" stop-color="#e2b372"/><stop offset=".335" stop-color="#ffdc8e"/><stop offset=".506" stop-color="#ffe078"/><stop offset=".556" stop-color="#ffffc0"/><stop offset=".623" stop-color="#f9d998"/><stop offset=".891" stop-color="#e2b066"/></linearGradient><path class="st0" d="M49.1 40.4l28.3-28.3c2.3-2.3 2.3-6.2 0-8.5s-6.2-2.3-8.5 0L40.6 31.9 12.3 3.6c-2.3-2.3-6.2-2.3-8.5 0s-2.3 6.2 0 8.5l28.3 28.3L3.8 68.7c-2.3 2.3-2.3 6.2 0 8.5s6.2 2.3 8.5 0l28.3-28.3 28.3 28.3c2.3 2.3 6.2 2.3 8.5 0s2.3-6.2 0-8.5L49.1 40.4z"/></svg>