<svg id="圖層_1" xmlns="http://www.w3.org/2000/svg" viewBox="0 0 200 200"><style>.st0{fill:#999}</style><path class="st0" d="M173 40.6H27c-8.1 0-14.7 6.6-14.7 14.7v89.5c0 8.1 6.6 14.7 14.7 14.7h146c8.1 0 14.7-6.6 14.7-14.7V55.3c-.1-8.1-6.6-14.7-14.7-14.7zm-3.6 10.5l-58.2 51.6c-5.1 4.5-8.8 6.8-11.3 6.8-2.4 0-6.2-2.3-11.3-6.8l-58-51.6h138.8zM23.3 141.5V60.6l45.4 39.9-45.4 41zm7.6 7.4l45.6-40.5L84 115c4.3 3.8 9.7 5.7 16 5.7 6.3 0 11.6-1.9 16-5.7l7.5-6.6 45.6 40.5H30.9zm145.8-7.4l-45.4-41 45.4-39.9v80.9z"/></svg>