<svg id="圖層_1" xmlns="http://www.w3.org/2000/svg" viewBox="0 0 200 200"><style>.st0{fill:#999}</style><path class="st0" d="M163.3 29.6H37c-13.5 0-24.5 10.9-24.5 24.5v91.5C12.6 159 23.5 170 37 170h126.2c13.5 0 24.5-10.9 24.5-24.5V54c0-13.5-10.9-24.4-24.4-24.4zm-29.2 34.1c11.1 0 20.1 9 20.1 20.1s-9 20.1-20.1 20.1-20.1-9-20.1-20.1c0-11.1 9-20.1 20.1-20.1zm-64.3 70.4H35.9c-4.3 0-7.8-3.5-7.8-7.8s3.5-7.8 7.8-7.8h33.9c4.3 0 7.8 3.5 7.8 7.8s-3.5 7.8-7.8 7.8zm0-27H35.9c-4.3 0-7.8-3.5-7.8-7.8s3.5-7.8 7.8-7.8h33.9c4.3 0 7.8 3.5 7.8 7.8s-3.5 7.8-7.8 7.8zm0-27H35.9c-4.3 0-7.8-3.5-7.8-7.8s3.5-7.8 7.8-7.8h33.9c4.3 0 7.8 3.5 7.8 7.8s-3.5 7.8-7.8 7.8zm88.5 55.7h-48.4c-7.7 0-13.9-6.2-13.9-13.9s6.2-13.9 13.9-13.9h48.4c7.7 0 13.9 6.2 13.9 13.9s-6.2 13.9-13.9 13.9z"/></svg>