<svg id="圖層_1" xmlns="http://www.w3.org/2000/svg" viewBox="0 0 200 200"><style>.st0{fill:#999}</style><path class="st0" d="M136.8 78.5H121v-5.9c0-9.9-2.7-26.4-21-26.4-19 0-21 18.5-21 26.4v5.9H63.3v-5.9C63.3 46.7 77.7 30 100 30s36.8 16.7 36.8 42.6v5.9zm-26.3 43c0-6-4.7-10.8-10.5-10.8s-10.5 4.8-10.5 10.8c0 4 2.1 7.4 5.3 9.3V143c0 3 2.4 5.4 5.3 5.4s5.3-2.5 5.3-5.4v-12.3c3-1.7 5.1-5.2 5.1-9.2zm42-21.5v53.8c0 8.9-7.1 16.2-15.8 16.2H63.3c-8.7 0-15.7-7.3-15.7-16.2V100c0-8.9 7.1-16.2 15.7-16.2h73.5c8.6 0 15.7 7.3 15.7 16.2z"/></svg>